<svg fill="none" height="80" viewBox="0 0 183 80" width="183" xmlns="http://www.w3.org/2000/svg" xmlns:xlink="http://www.w3.org/1999/xlink"><clipPath id="a"><path d="m76.7432 17.3599h29.3538v30.366h-29.3538z"/></clipPath><g fill="#000"><path d="m48.5996 70.136h1.8672c1.4313 0 2.4209.463 2.4209 1.74 0 .9472-.5538 1.4223-1.4223 1.6402v.0212c.9381.0787 1.6008.693 1.6008 1.6583 0 1.4829-1.2256 1.8369-2.6267 1.8369h-1.8369v-6.8966zm.9896 6.0856h.7414c.8897 0 1.6886-.1876 1.6886-1.1166 0-1.0683-.9381-1.2166-1.7885-1.2166h-.6415zm0-3.1411h.5447c.9593 0 1.7672-.0878 1.7672-1.1076 0-.8201-.702-1.0289-1.274-1.0289h-1.0379z"/><path d="m57.0486 70.136h1.0379l2.9142 6.8966h-1.0773l-.7021-1.74h-3.3802l-.702 1.74h-1.038zm.4841.929-1.3738 3.4196h2.7477z"/><path d="m62.5107 70.136h1.3437l3.0443 5.553h.0212v-5.553h.9865v6.8966h-1.2649l-3.123-5.671h-.0212v5.671h-.9866z"/><path d="m75.3657 71.3617c-.4842-.3148-1.0077-.4751-1.8974-.4751-1.5918 0-2.6479 1.1559-2.6479 2.6963 0 1.6189 1.1651 2.6963 2.5995 2.6963.6809 0 .8594-.0696 1.1075-.1181v-2.0941h-1.4525v-.811h2.4391v3.586c-.3753.1271-1.0289.3057-2.1032.3057-2.1819 0-3.6344-1.4042-3.6344-3.5951 0-2.1244 1.5403-3.5376 3.6465-3.5376 1.0077 0 1.4526.1483 2.0245.345z"/><path d="m92.7845 70.0181c2.0941 0 3.3197 1.5222 3.3197 3.5679 0 2.0941-1.2165 3.5678-3.3197 3.5678-2.1031 0-3.3197-1.4707-3.3197-3.5678 0-2.0457 1.2226-3.5679 3.3197-3.5679zm0 6.2642c1.5918 0 2.2727-1.3225 2.2727-2.6963 0-1.4042-.7505-2.7084-2.2727-2.6963-1.5221-.0091-2.2726 1.2952-2.2726 2.6963 0 1.3738.6809 2.6963 2.2726 2.6963z"/><path d="m98.0685 70.136h.9865v6.0251h2.884v.8685h-3.8736v-6.8936z"/><path d="m108.596 74.1791c0 1.9367-.977 2.9747-2.678 2.9747s-2.678-1.038-2.678-2.9747v-4.0399h.986v3.9128c0 1.3224.415 2.2333 1.689 2.2333s1.688-.9079 1.688-2.2333v-3.9128h.987v4.0399z"/><path d="m110.981 70.136h3.665v.8685h-2.679v2.0154h2.561v.8685h-2.561v3.1412h-.986z"/><path d="m120.15 71.1741c-.505-.1967-.781-.2875-1.295-.2875-.554 0-1.204.1967-1.204.92 0 1.3224 2.962 1.0168 2.962 3.2894 0 1.4707-1.135 2.0548-2.518 2.0548-.484 0-.959-.1392-1.413-.2875l.1-.92c.336.1392.929.336 1.431.336.563 0 1.353-.3148 1.353-1.1258 0-1.5403-2.962-1.1166-2.962-3.2592 0-1.2256.968-1.8762 2.212-1.8762.454 0 .998.0787 1.47.2482z"/><path d="m122.858 70.136h3.862v.8685h-2.875v2.0154h2.618v.8685h-2.618v2.2727h2.875v.8685h-3.862z"/><path d="m129.005 70.136h1.343l3.045 5.553h.021v-5.553h.987v6.8966h-1.265l-3.123-5.671h-.022v5.671h-.986z"/><path d="m85.3856 76.933s-.7807-.7807-.9774-.9774c-.1634.1603-.3269.3207-.6325.6264-.6052.6052-1.855.932-2.781.006-.9412-.9411-.5841-2.2091-.0061-2.7871.2239-.2239.4933-.4872.6325-.6264-.1211-.1301-.7142-.5931-.7142-1.4314 0-.8685.699-1.7219 1.7219-1.7219.7474 0 1.1681.457 1.2195.5115-.0514.0514-.6173.6143-.696.693-.0756-.0787-.2481-.2179-.5235-.2179-.3238 0-.7384.2602-.7384.7384 0 .2995.1997.4993.2239.5235.3299.3298 2.2909 2.2968 2.2909 2.2968l.699-.699.693.699-.6991.693.9775.9775zm-3.0685-3.0594s-.2905.2905-.6264.6264-.4328.9562 0 1.389c.4327.4327 1.0501.3389 1.389.006.3389-.3328.6355-.6355.6355-.6355z"/></g><rect fill="#252525" height="59.3128" rx="29.6564" width="60.5232" x="61.3096" y="2.83423"/><g clip-path="url(#a)"><path clip-rule="evenodd" d="m93.5853 26.1925c0 .8706.3435 1.6714.9922 2.3175.9125.9071 1.9118 1.0311 2.5916.9767.8088-.066 1.6223-.4339 2.1779-.9851l.1423-.1417c.4083-.4067.6587-.6561.9027-.8915l1.675 1.6249 1.176-1.1761.016-.029-1.65-1.6445 1.174-1.1704-1.228-1.2221-1.174 1.1714s-3.4303-3.4251-3.8559-3.8533c-.2287-.2313-.3689-.4746-.3689-.8611 0-.4097.1856-.683.3435-.8391.2294-.2292.5674-.3718.8766-.3718.4717 0 .7626.2489.8621.3544l.0256.0255.0255-.0243.6973-.6922.4813-.4793.0207-.0241-.0327-.0362c-.3155-.3215-1.0089-.8611-2.0839-.8611-.8192 0-1.5779.3254-2.1341.9155-.5212.5512-.8184 1.2898-.8184 2.027 0 1.2243.6997 1.9768 1.1945 2.4349l-1.0439 1.0176c-.6073.604-.985 1.5394-.985 2.4375zm2.2163-1.2084 1.0366-1.0333 2.3207 2.2893c-.106.1087-.5554.5604-1.0502 1.0489-.5977.5853-1.5876.7082-2.3071-.0072-.314-.3147-.4797-.7047-.4797-1.131 0-.4293.18-.8668.4797-1.1667zm7.5634 8.4923c-1.586-1.574-3.6964-2.44-5.9402-2.44-2.2437 0-4.3541.866-5.9405 2.44-1.5861 1.5756-2.4599 3.6678-2.4599 5.8937 0 2.2263.8738 4.3171 2.4599 5.8912 1.5864 1.5749 3.6968 2.4411 5.9405 2.4411 2.2438 0 4.3542-.8662 5.9402-2.4411 1.587-1.5741 2.461-3.6649 2.461-5.8912 0-2.2259-.874-4.3181-2.461-5.8937zm-5.9402 12.0822c-1.6669 0-3.2344-.6444-4.4125-1.8133-1.1785-1.1687-1.8296-2.7235-1.8296-4.3752 0-1.655.6511-3.2085 1.8296-4.3771 1.1781-1.1711 2.7456-1.8146 4.4125-1.8146 1.6668 0 3.2342.6435 4.4132 1.8146 1.177 1.1686 1.827 2.7221 1.827 4.3771 0 3.412-2.799 6.1885-6.2402 6.1885zm-8.3869-18.2085c0 3.5461-1.9552 6.7802-5.1088 8.4518.9008.5674 1.6592 1.3509 2.1839 2.2724.5545.9662.8481 2.0678.8481 3.1854 0 1.7258-.6803 3.3499-1.9121 4.5727-1.2293 1.2207-2.8678 1.8935-4.609 1.8935h-3.1926l-.0047-29.9535h2.1419c2.5784 0 5.0036.9956 6.8285 2.8066 1.8246 1.8091 2.8248 4.2143 2.8248 6.7711zm-4.3536-5.2567c-1.4077-1.3955-3.2806-2.1674-5.2693-2.1766v14.8677c1.9887-.0092 3.8616-.7813 5.2693-2.1762 1.4171-1.4034 2.1929-3.2713 2.1929-5.2582 0-1.9847-.7758-3.8512-2.1929-5.2567zm-5.2693 23.4893h1.0226c2.4031 0 4.3584-1.9392 4.3584-4.323 0-1.155-.4522-2.2398-1.2748-3.0583-.8239-.8152-1.9272-1.2633-3.0926-1.2633 0 0-.8366-.0047-1.0136-.0047z" fill="#fff" fill-rule="evenodd"/></g></svg>