<svg fill="none" height="80" viewBox="0 0 183 80" width="183" xmlns="http://www.w3.org/2000/svg"><path clip-rule="evenodd" d="m147.319 53.5c1.491 0 2.693-1.0157 2.693-2.2178v-21.5644c0-1.2201-1.208-2.2178-2.693-2.2178h-111.6264c-1.4906 0-2.6926.9977-2.6926 2.2178v21.5644c0 1.2201 1.202 2.2178 2.6926 2.2178z" fill="#cc151a" fill-rule="evenodd"/><g fill="#fff"><path clip-rule="evenodd" d="m79.4105 40.5119c-.006-5.0846 2.0855-8.258 5.4693-8.258 3.4137 0 5.4872 3.1553 5.4872 8.4623.0121 4.8683-2.1396 8.0236-5.4692 8.0236-3.4318 0-5.4813-3.1433-5.4873-8.2279zm3.6662-.006c0 4.4535 1.3643 4.4535 1.8031 4.4535h.006c1.196 0 1.797-1.4845 1.797-4.4535 0-2.9691-.601-4.4776-1.803-4.4776-.4688 0-1.8031.024-1.8031 4.4776z" fill-rule="evenodd"/><path clip-rule="evenodd" d="m102.015 40.5119c-.012-5.0846 2.097-8.258 5.463-8.258 3.444 0 5.493 3.1674 5.505 8.4623 0 4.8683-2.151 8.0236-5.487 8.0236-3.426 0-5.469-3.1433-5.481-8.2279zm3.66-.006c0 4.4535 1.352 4.4535 1.803 4.4535h.048c1.16 0 1.719-1.4845 1.719-4.4535 0-2.9691-.601-4.4776-1.803-4.4776-.439 0-1.767.024-1.767 4.4776z" fill-rule="evenodd"/><path clip-rule="evenodd" d="m123.874 40.5119c0-5.0846 2.091-8.258 5.463-8.258 3.432 0 5.499 3.1674 5.505 8.4623 0 4.8683-2.067 8.0236-5.487 8.0236s-5.481-3.1433-5.481-8.2279zm5.463 4.4475c-.445 0-1.803 0-1.803-4.4535 0-4.4536 1.328-4.4776 1.773-4.4776 1.202 0 1.803 1.5085 1.803 4.4776 0 2.969-.565 4.4535-1.755 4.4535z" fill-rule="evenodd"/><path d="m143.419 48.5355h-9.226c.102-.2764 3.384-8.5825 3.384-8.5825l-3.041-7.4827h8.883v3.6542h-3.558s1.442 3.7804 1.442 3.8165l-1.761 4.7781h3.877z"/><path d="m118.17 41.2692s-1.665 7.038-1.725 7.2663l-3.798.0121c.057-.2217 1.755-6.5645 3-11.2117l.017-.0636c.704-2.6298 1.258-4.7014 1.28-4.7839h3.005c.084.3426 4.249 15.7106 4.345 16.0592h-3.768c-.162-.559-1.803-7.1581-1.803-7.2122l-.006-.0266c-.076-.335-.158-.6937-.234-1.1094h-.085z"/><path d="m61.386 32.4703h17.6218l-.012 3.6542h-3.564s1.4424 3.7804 1.4424 3.8165l-1.7429 4.7781h3.8765v3.8164h-9.2316l3.3777-8.5825s-2.6745-6.6112-3.0051-7.4045v3.6061h-2.5302v12.3749h-3.7143v-12.3749h-2.5183z"/><path d="m50.3814 44.8333h1.3883l-.0541-.0661c-1.0963-1.3868-1.6858-3.1065-1.6708-4.8743-.006-3.6181 1.773-7.5307 5.6796-7.5307 3.8886 0 5.6917 3.9186 5.6917 7.5247.0125 1.7644-.5698 3.4815-1.6528 4.8743l-.0722.0661h1.3884v3.7083h-4.9764v-4.5858h.048c1.3704-.613 1.5687-2.8128 1.5687-4.0629 0-.3846-.0481-3.7263-1.9954-3.7263s-1.9954 3.3477-1.9954 3.7263c0 1.2562.2044 3.4619 1.5687 4.0629h.0601v4.5798h-4.9764z"/><path d="m43.7642 43.1263v5.4092h-3.5821v-16.0892h3.6061v4.8983h.0481s1.9774-4.682 2.0615-4.8743h3.8946c-.1443.3065-3.1493 7.3805-3.1493 7.3805v.0301s3.1854 8.4683 3.2334 8.6847h-3.9366c-.0481-.1263-2.0795-5.4092-2.0795-5.4092l-.0421-.0301z"/><path clip-rule="evenodd" d="m96.5215 48.5355h-5.0245v-16.0652h4.8682c.5667-.0347 1.1342.0548 1.6626.2625.5285.2076 1.0051.5283 1.3966.9395.6566.7989.9976 1.8097.9616 2.8428.055.6624-.069 1.3273-.36 1.9249-.2908.5976-.7374 1.1058-1.2928 1.4709v.1022c1.6828.3606 2.6868 1.8571 2.6868 3.9667.031.6228-.068 1.2452-.29 1.8277-.223.5826-.564 1.1124-1.002 1.556-1.0217.813-2.3025 1.2292-3.6065 1.172zm-1.2802-13.006c.4786-.0467.9593.0629 1.3703.3125.1902.1616.3402.3651.4382.5946.0981.2294.1415.4785.1268.7276.0128.2524-.0351.5042-.1397.7343-.1045.23-.2627.4317-.4613.588-.3939.2426-.8554.3521-1.3163.3125h-.3546v-3.2455zm2.5148 7.2495c-.1236-.2575-.3131-.4778-.5495-.6383l-.018-.006c-.5969-.2614-1.2504-.3669-1.8992-.3066h-.3847v3.6061h.3667c.7055.0731 1.4165-.0717 2.0374-.4147.2094-.1671.3739-.3837.4788-.6303.1049-.2465.1469-.5153.1222-.7821.0228-.2847-.0302-.5705-.1537-.8281z" fill-rule="evenodd"/></g></svg>