<svg width="100" height="47" viewBox="0 0 100 47" fill="none" xmlns="http://www.w3.org/2000/svg">
<path fill-rule="evenodd" clip-rule="evenodd" d="M8.79681 30.5468L8.3757 30.6071V36.9514V43.2957L8.51817 43.2726C8.59652 43.2599 8.83449 43.2284 9.047 43.2026L9.43336 43.1558V36.8159V30.4761L9.32563 30.4813C9.26641 30.4842 9.02843 30.5137 8.79681 30.5468ZM29.8226 30.5185C29.6933 30.5365 29.5126 30.5619 29.4211 30.5748L29.2546 30.5984L29.2554 34.7581C29.256 38.1438 29.2666 38.9962 29.3123 39.3395C30.0955 45.2239 38.8495 44.4337 38.6853 38.4935C38.5661 34.1777 33.1175 32.3617 30.4358 35.7439L30.3123 35.8997V33.1879V30.4761L30.1849 30.4809C30.1149 30.4835 29.9519 30.5004 29.8226 30.5185ZM49.8495 30.544L49.4284 30.6027V36.9441C49.4284 42.9585 49.4319 43.2853 49.497 43.2825C49.5347 43.2809 49.7682 43.2498 50.016 43.2134L50.4665 43.1472L50.4764 36.8116L50.4863 30.4761L50.3785 30.4807C50.3191 30.4832 50.0811 30.5116 49.8495 30.544ZM52.9833 30.544L52.5622 30.6027V36.9454V43.2882L52.7678 43.2615C52.881 43.2468 53.1145 43.215 53.2869 43.1909L53.6003 43.1469L53.6102 36.8115L53.6201 30.4761L53.5122 30.4807C53.4529 30.4832 53.2149 30.5116 52.9833 30.544ZM71.2964 30.9261C71.0971 31.1712 70.9342 31.3862 70.9343 31.4038C70.9345 31.438 71.6291 32.212 71.6757 32.2299C71.7002 32.2394 72.3597 31.4745 72.4373 31.3466C72.7134 30.8918 71.6445 30.4978 71.2964 30.9261ZM83.1657 30.9251C82.7299 31.4633 82.7307 31.3574 83.1585 31.8283C83.5896 32.3028 83.5071 32.3082 83.9566 31.7755C84.4047 31.2445 84.4052 31.3717 83.9529 30.8839C83.4985 30.3939 83.6001 30.3886 83.1657 30.9251ZM99.3634 30.5468L98.9423 30.6071V36.9514V43.2957L99.0848 43.2726C99.1632 43.2599 99.4011 43.2284 99.6136 43.2026L100 43.1558V36.8159V30.4761L99.8923 30.4813C99.8331 30.4842 99.595 30.5137 99.3634 30.5468ZM0.0127048 30.8728C0.00146226 30.9024 -0.00319923 33.6765 0.00232408 37.0375L0.0123915 43.1484L1.81432 43.1454C4.00398 43.1418 4.34858 43.0952 5.13262 42.6968C7.36972 41.56 7.44097 38.1717 5.25284 36.9781C4.86746 36.7679 4.87287 36.7989 5.1882 36.6066C5.92214 36.1589 6.39456 35.358 6.49355 34.3935C6.68886 32.4901 5.65733 31.2556 3.59573 30.9256C3.0251 30.8342 0.044121 30.7904 0.0127048 30.8728ZM60.4359 37.0038V43.1789L62.0517 43.1561C67.156 43.084 69.6414 41.0675 69.6414 36.9983C69.6414 32.6991 67.1359 30.8313 61.3662 30.829L60.4359 30.8286V37.0038ZM86.9262 31.7939L86.4463 32.0872V33.1423V34.1975H85.9469L85.4474 34.1975L85.3056 34.6857C85.1348 35.2738 85.0784 35.2159 85.8232 35.2159H86.4404L86.4582 38.007C86.4889 42.8137 87.0072 43.6751 89.5899 43.2114L89.8935 43.1569V42.6394V42.122L89.6095 42.1728C87.6763 42.5189 87.504 42.169 87.504 37.8964V35.2159H88.6596H89.8152V34.7067V34.1975H88.6596H87.504V32.846C87.504 31.7893 87.4933 31.4952 87.455 31.4977C87.4281 31.4993 87.1902 31.6327 86.9262 31.7939ZM3.43998 31.9271C4.88932 32.1558 5.66846 33.3059 5.32315 34.7067C5.01636 35.9512 4.14555 36.39 1.98081 36.3908L1.12881 36.3911V34.1387V31.8863L2.15708 31.8866C2.72265 31.8868 3.29994 31.905 3.43998 31.9271ZM64.2356 31.981C68.9329 32.8046 70.1815 39.0357 66.1159 41.3649C65.1725 41.9054 64.4348 42.0645 62.7176 42.0976L61.5327 42.1205V36.9991V31.8778L62.6981 31.8967C63.5365 31.9104 63.9678 31.934 64.2356 31.981ZM80.8447 33.7896C79.6293 34.0717 79.6519 34.0699 77.515 34.0381C73.8579 33.9835 72.2569 37.8879 75.1582 39.7858L75.3881 39.9362L75.1791 40.482C74.9313 41.129 74.9156 41.0882 75.3455 40.9142C77.7452 39.9422 80.1169 40.9034 80.2463 42.9003C80.4297 45.7317 76.2038 46.4724 74.3057 43.9416C74.1022 43.6702 74.1936 43.6606 73.6555 44.01C73.1357 44.3475 73.1467 44.2766 73.5388 44.7639C75.3241 46.9824 78.8424 47.1575 80.5973 45.1152C81.9608 43.5284 81.381 41.0617 79.4251 40.1291L79.2833 40.0614L79.623 39.8617C81.5614 38.7221 81.7624 36.0807 80.0025 34.876L79.8066 34.742L80.0612 34.7733C81.0515 34.8951 81.1885 34.829 81.4279 34.1132C81.6119 33.5632 81.6735 33.5973 80.8447 33.7896ZM93.2701 34.0218C92.8548 34.0848 92.2079 34.2368 91.8936 34.3452L91.6804 34.4188L91.488 34.9961C91.2627 35.672 91.2545 35.6397 91.6138 35.4915C94.475 34.3116 95.9391 34.8138 95.9948 36.9942L96.0147 37.7735L95.7747 37.5739C93.5903 35.756 90.3211 37.252 90.3249 40.0677C90.3289 42.9596 93.7439 44.4514 95.8183 42.4675L96.0044 42.2895V42.8309V43.3723L96.0926 43.3513C96.141 43.3398 96.3702 43.2896 96.6018 43.2399L97.0229 43.1496L97.0226 39.7214C97.0223 36.1292 97.0174 36.0132 96.8429 35.4826C96.4464 34.2772 95.1313 33.7395 93.2701 34.0218ZM23.6334 34.0633C21.4039 34.4055 19.8289 36.1899 19.7463 38.4672C19.5954 42.6319 24.0099 44.7834 27.6778 42.3327L28.0399 42.0907L28.0401 41.4346C28.0402 41.0737 28.0301 40.7784 28.0177 40.7784C28.0053 40.7784 27.8951 40.8553 27.7729 40.9493C25.3135 42.8401 22.7774 42.7105 21.4121 40.6245C21.1858 40.2787 21.1399 40.3473 21.8902 39.9084C22.2026 39.7257 23.0046 39.2532 23.6725 38.8585C24.3404 38.4637 25.6184 37.7101 26.5125 37.1838C28.3753 36.0872 28.2252 36.1905 28.1611 36.0494C27.5079 34.6108 25.579 33.7647 23.6334 34.0633ZM43.768 34.0281C41.2979 34.3381 39.6353 36.2169 39.6353 38.6982C39.6353 42.7205 43.9761 44.7076 47.5775 42.334L47.9398 42.0952V41.4368C47.9398 41.0747 47.9311 40.7784 47.9204 40.7784C47.9096 40.7784 47.737 40.9 47.5367 41.0486C45.6057 42.481 43.7952 42.6809 42.2694 41.63C41.7767 41.2907 41.0493 40.3992 41.1727 40.2859C41.1997 40.2611 42.1296 39.7069 43.2392 39.0544C44.3487 38.4019 45.4857 37.7319 45.7658 37.5656C46.0459 37.3993 46.6849 37.0211 47.1858 36.7251C47.6867 36.4291 48.0965 36.1678 48.0965 36.1444C48.0965 35.9306 47.3824 35.0792 46.9352 34.7599C46.1236 34.1806 44.8669 33.8902 43.768 34.0281ZM11.8425 34.1223C11.7132 34.1403 11.5325 34.1657 11.4409 34.1787L11.2745 34.2023L11.2745 37.1084C11.2745 40.7727 11.2958 41.0132 11.6926 41.8342C12.6842 43.8862 15.9065 43.9106 17.2808 41.8763C17.343 41.7843 17.3462 41.8166 17.3462 42.5351C17.3462 43.2361 17.3511 43.2893 17.4147 43.271C17.4524 43.2602 17.6816 43.2295 17.924 43.2028L18.3647 43.1544V38.6172C18.3647 34.9637 18.3549 34.0799 18.3147 34.0799C18.2479 34.0799 17.6338 34.1527 17.4735 34.1796L17.3462 34.201V37.0937C17.3462 39.5611 17.3371 40.0341 17.2846 40.3112C16.8283 42.7167 13.4512 43.3372 12.6096 41.1701C12.3548 40.5142 12.3554 40.5233 12.3413 37.1452L12.3286 34.0799L12.203 34.0847C12.134 34.0873 11.9717 34.1043 11.8425 34.1223ZM71.6 34.1407C71.3953 34.1682 71.2146 34.1922 71.1985 34.1941C71.1823 34.1959 71.1691 36.2446 71.1691 38.7466V43.2957L71.3116 43.2726C71.3899 43.2599 71.6279 43.2284 71.8404 43.2026L72.2268 43.1558V38.6179V34.0799L72.0994 34.0853C72.0294 34.0882 71.8047 34.1131 71.6 34.1407ZM83.4692 34.1407C83.2646 34.1682 83.0839 34.1922 83.0677 34.1941C82.9952 34.2024 83.0343 43.2856 83.1069 43.2825C83.1446 43.2809 83.3782 43.2498 83.6259 43.2134L84.0764 43.1472L84.0864 38.6136L84.0963 34.0799L83.9688 34.0853C83.8987 34.0882 83.6739 34.1131 83.4692 34.1407ZM34.7583 35.0831C37.0475 35.5162 38.3365 38.2466 37.2435 40.3473C36.1215 42.504 33.2163 43.0181 31.4765 41.3678C28.7608 38.7917 31.0626 34.3838 34.7583 35.0831ZM78.337 35.0989C81.0649 35.8737 80.5251 39.353 77.6521 39.5128C74.2471 39.7022 73.6953 35.6036 77.045 35.0038C77.2818 34.9614 78.0527 35.0181 78.337 35.0989ZM25.1415 35.076C25.7044 35.1779 26.1133 35.3709 26.4636 35.7C26.7305 35.9508 26.797 35.8763 25.7585 36.491C25.0002 36.9399 21.4534 39.049 21.0434 39.295C20.8343 39.4204 20.8325 39.416 20.833 38.7904C20.8352 36.3403 22.7946 34.6511 25.1415 35.076ZM44.9627 35.0607C45.6101 35.1625 46.5688 35.6708 46.5688 35.9123C46.5688 35.9341 45.921 36.3363 45.1292 36.8063C44.3374 37.2762 43.0322 38.0529 42.2285 38.5323C41.1077 39.2009 40.7622 39.3901 40.7449 39.3449C40.6893 39.2 40.7653 37.9763 40.8491 37.6674C41.3283 35.9002 43.1123 34.7698 44.9627 35.0607ZM3.96881 37.5045C5.24019 37.8705 5.90682 39.0334 5.61887 40.383C5.34701 41.657 4.63012 42.0321 2.4117 42.0609L1.12881 42.0776V39.7404V37.4032L2.43129 37.42C3.51233 37.434 3.77373 37.4484 3.96881 37.5045ZM94.4156 37.867C95.6164 38.1653 96.2947 39.5665 95.8723 40.8764C95.2063 42.9419 92.0329 42.8115 91.4738 40.6956C91.0023 38.9113 92.5661 37.4077 94.4156 37.867Z" fill="#5A63AE"/>
<path d="M45.412 2.8378C45.7098 2.29792 46.1913 1.42152 46.4822 0.890183C46.786 0.335237 47.0193 0.010498 47.0193 0.010498C47.0193 0.010498 47.2947 0.248376 47.6461 0.626785C47.9577 0.962453 48.812 1.73486 49.5768 2.45908C58.4936 10.9024 58.6128 11.3863 53.8752 19.9087L53.0318 21.426L53.3706 21.7328C53.7718 22.096 54.0448 22.3246 56.5887 24.4266C58.512 26.0158 58.9337 26.3387 59.3799 26.5639C60.9786 27.371 62.676 27.4754 64.4403 26.8753C64.8483 26.7366 64.8525 26.7515 64.4917 27.0543C62.543 28.6901 60.0737 28.8305 57.9589 27.4256C57.8399 27.3466 56.6765 26.3628 55.3735 25.2395C54.0705 24.1162 52.7664 23.017 52.4756 22.7969C51.539 22.0881 50.8149 21.4587 49.5222 20.2294C47.3597 18.173 46.6401 17.5586 45.7372 16.9978C44.0424 15.945 42.4224 15.7978 40.6935 16.5394C40.2089 16.7473 40.1991 16.7106 40.6757 16.4733C43.2491 15.1922 45.3281 15.1974 47.5399 16.4904C47.794 16.639 47.7979 16.6433 47.2461 16.1765C43.3409 12.8734 42.0125 9.02739 43.7098 5.9381L44.3574 4.75948C44.4757 4.54403 44.6396 4.24436 44.7216 4.09355C44.8036 3.94273 45.1143 3.37763 45.412 2.8378Z" fill="#5B61AE"/>
<path d="M46.525 1.3101C45.3888 4.32796 44.7039 6.14703 48.4832 10.0469C52.132 13.8122 52.991 21.2703 53.0063 21.4051L53.8495 19.8883C58.5871 11.3659 58.4679 10.882 49.5511 2.43866C49.2922 2.19354 49.0231 1.9429 48.7682 1.70554C48.2701 1.24162 47.8265 0.828426 47.6203 0.606369C47.3107 0.272925 47.0601 0.0486117 47.0049 0C46.8433 0.464551 46.6799 0.89847 46.525 1.3101Z" fill="url(#paint0_linear_14277_12643)"/>
<path d="M53.0064 21.4059C53.0065 21.4066 53.0065 21.4069 53.0065 21.4069C53.0065 21.4069 53.0067 21.4068 53.007 21.4065L53.0064 21.4059Z" fill="url(#paint1_linear_14277_12643)"/>
<path d="M51.7164 22.6447C51.7227 22.6554 51.7245 22.6621 51.7217 22.6648C51.6803 22.7034 50.7503 23.3063 48.8717 24.5124C48.2866 24.8881 47.4283 25.434 46.6277 25.9397C46.2229 26.1954 45.7293 26.5248 45.5308 26.6717C42.0688 29.2345 38.6874 30.0535 36.0161 28.9764C35.2978 28.6867 35.1843 28.5934 32.3606 25.9679C32.2528 25.8677 31.5477 25.2183 30.7937 24.5246C30.0396 23.8309 29.4176 23.2494 29.4114 23.2323C29.4107 23.2302 29.4133 23.2263 29.419 23.2208C29.5287 23.2906 29.636 23.3589 29.741 23.4256C33.9806 26.1239 34.4068 26.3951 39.0003 24.4238C43.7828 22.3714 45.139 22.1759 51.7164 22.6447Z" fill="#B9BDE0"/>
<path d="M42.381 16.3609C42.3379 16.3702 42.0735 16.4224 41.7934 16.477C39.9339 16.8391 37.9946 17.8388 33.1167 20.9498C31.2578 22.1353 30.6006 22.5384 29.8934 22.9264C29.6516 23.0591 29.4523 23.1813 29.4113 23.2208C29.521 23.2906 29.6283 23.3589 29.7332 23.4256C33.9729 26.1239 34.3991 26.3951 38.9925 24.4238C43.775 22.3714 45.1313 22.1759 51.7087 22.6447C51.5393 22.3565 48.1372 19.2184 46.9434 18.2573C45.1985 16.8525 43.4572 16.1288 42.381 16.3609Z" fill="#C6CBE8"/>
<path d="M75.4687 19.3186C75.4756 19.3288 75.4779 19.3355 75.4753 19.3383C75.4365 19.3795 74.5479 20.0421 72.7524 21.3685C72.1931 21.7817 71.3724 22.3826 70.6065 22.9397C70.2194 23.2213 69.7484 23.5823 69.56 23.7419C66.2732 26.5259 62.9527 27.5645 60.2166 26.6645C59.4808 26.4225 59.3614 26.3367 56.3719 23.9018C56.2578 23.8089 55.5117 23.207 54.7139 22.5641C53.916 21.9213 53.2572 21.3818 53.25 21.3651C53.2491 21.3631 53.2515 21.359 53.2568 21.3531C53.3709 21.4156 53.4824 21.4767 53.5915 21.5364C57.9986 23.9514 58.4417 24.1941 62.8963 21.9264C67.5341 19.5653 68.8747 19.2814 75.4687 19.3186Z" fill="#B9BDE0"/>
<path d="M65.7419 13.6595C65.6995 13.6716 65.4391 13.741 65.1631 13.8138C63.3313 14.2969 61.4617 15.4213 56.7979 18.845C55.0206 20.1497 54.3912 20.5949 53.7109 21.0284C53.4783 21.1766 53.2874 21.3116 53.2491 21.3537C53.3632 21.4161 53.4747 21.4772 53.5838 21.537C57.9909 23.9519 58.434 24.1947 62.8886 21.9269C67.5264 19.5659 68.867 19.2819 75.461 19.3192C75.273 19.0426 71.6728 16.134 70.4187 15.2531C68.5855 13.9656 66.8006 13.3574 65.7419 13.6595Z" fill="#C6CBE8"/>
<defs>
<linearGradient id="paint0_linear_14277_12643" x1="46.4317" y1="-6.6218e-08" x2="52.8952" y2="20.5851" gradientUnits="userSpaceOnUse">
<stop stop-color="#5B66AC"/>
<stop offset="1" stop-color="#868BC4"/>
</linearGradient>
<linearGradient id="paint1_linear_14277_12643" x1="46.4317" y1="-6.6218e-08" x2="52.8952" y2="20.5851" gradientUnits="userSpaceOnUse">
<stop stop-color="#5B66AC"/>
<stop offset="1" stop-color="#868BC4"/>
</linearGradient>
</defs>
</svg>
