<svg fill="none" height="80" viewBox="0 0 183 80" width="183" xmlns="http://www.w3.org/2000/svg"><g fill="#dd1438"><path d="m107.831 21.8036c.541-.5356 1.303-.8657 2.071-.7938.509.0176 1.046.3287 1.182.8429.14.5429.028 1.1093-.099 1.6434-.207.8474-.491 1.6742-.695 2.5223-.44 1.6617-.872 3.3285-1.164 5.0239-.039.2436-.103.4879-.097.7366.275.3089.683.4813.923.8305.529.6926.421 1.6602.1 2.4181-.282.6823-1.029 1.0557-1.741 1.0623-.044.3257-.078.6529-.106.9809-.096 1.1246-.27 2.242-.338 3.3689-.08.9537-.103 1.9111-.096 2.8678.01.9625.155 1.9551.642 2.801.168.3147.428.5935.487.9567.069.4717-.027.964-.248 1.3851-.402.7197-1.174 1.201-1.989 1.2897-.523.0448-1.067-.0807-1.493-.391-.301-.215-.516-.5238-.708-.8341-.413-.6699-.652-1.435-.774-2.209-.103-.6757-.059-1.3609-.044-2.0403-.622.6918-1.284 1.355-2.046 1.8935-1.196.8635-2.5227 1.6397-4.0076 1.8473-.6515.0895-1.3661.146-1.961-.187-.405-.2165-.6816-.5965-.9193-.9773-.5385 1.0293-1.6903 1.7402-2.8627 1.6485-.6265-.0498-1.1422-.4842-1.512-.9632-.5363-.7175-.7865-1.5979-.9809-2.4592-.3147-1.3763-.2516-2.801-.1606-4.1986.0403-.6104.1694-1.2113.1804-1.8239-.3096.0881-.614.2077-.8745.4006-.7813.5561-1.3213 1.38-1.7387 2.2281-.6728 1.3433-1.0616 2.8032-1.3939 4.261-.1269.5869-.2913 1.165-.4622 1.7409-.1673.5825-.5525 1.0829-1.0176 1.4621-.3499.2869-.7989.4058-1.2376.4718-.2913.0411-.5987.0535-.876-.0565-.2957-.1167-.5297-.3558-.6742-.6346-.2759-.5312-.3866-1.1313-.4175-1.7241-.0498-.9214-.0095-1.8458.0675-2.7643.0815-.6735.1013-1.3543.2304-2.0219.3169-1.8826.6926-3.7585 1.2252-5.5933.278-.8899.5465-1.8026 1.0792-2.5803.3697-.5722.8723-1.0571 1.4614-1.4005.5011-.2905 1.1004-.3932 1.6734-.3286.4035.0454.7747.3103.9516.6749.168.3925.1166.8393.0044 1.2391-.2832.9626-.741 1.8598-1.0924 2.7967.2986-.3595.5612-.7491.873-1.0983 1.0095-1.1298 2.2061-2.1672 3.6741-2.6345.6133-.1996 1.3308-.281 1.9126.055.6375.3867.9904 1.1291 1.0454 1.8554.0565.8019.0052 1.6096-.1379 2.3997-.0932.5063-.1387 1.0198-.2296 1.5268-.1783.9016-.2465 1.8289-.168 2.746.0961.8503.3301 1.7614.997 2.3484.0887-1.4673.4086-2.9199.9508-4.286 1.1914-2.8626 3.2786-5.3578 5.9228-6.9842.833-.4997 1.716-.9156 2.625-1.2597.438-.1687.897-.2729 1.345-.4145.174-.8305.252-1.6764.416-2.5083.15-.7572.253-1.5245.449-2.2721.228-.9046.385-1.8275.675-2.716.233-.7974.589-1.589 1.198-2.1708zm-4.305 14.5481c-1.413.672-2.582 1.7857-3.468 3.0644-.6988 1.0125-1.2688 2.1533-1.4266 3.3865-.0176.2451-.0645.5099.0345.7432.2238.1907.5444.0528.7769-.0543.8882-.4871 1.6592-1.1709 2.3042-1.9485.871-1.0169 1.541-2.1907 2.084-3.4093.251-.6771.499-1.366.583-2.0865-.305.0719-.606.1658-.888.3045z"/><path d="m69.3863 25.3221c.5041-.3859 1.2054-.5466 1.8085-.3147.6558.2744 1.0491.9603 1.1408 1.6426.0924.661-.1335 1.3074-.369 1.9133-.292.7469-.5217 1.5157-.8004 2.2677-.4666 1.2824-.8217 2.6015-1.2186 3.9067-.2553.9544-.5385 1.9016-.7799 2.8597-.2824 1.041-.5311 2.0916-.8033 3.1356-.1269.6067-.3228 1.198-.4292 1.8099.5312.0983 1.0601.2208 1.6008.2553.3808-1.2113.7828-2.4232 1.3558-3.5596.4805-1.0125 1.0894-1.9655 1.8172-2.818.8811-.975 1.9053-1.8627 3.1253-2.3828.8004-.3111 1.6536-.5327 2.5193-.4828.6669 0 1.3279.2876 1.774.7836.402.4497.6617 1.0278.7182 1.6286.0785.7814.0022 1.573-.1746 2.3367-.1959.8518-.4923 1.6844-.9163 2.4511-.7498 1.3609-1.7673 2.5758-2.9911 3.5347-.895.7189-1.9272 1.2714-3.027 1.6001-.0895.041-.2098.0498-.2626.1423-.0183.2758.0565.5524.1731.8011.1658.3676.5723.5657.9582.6001.4225.0279.8627-.0403 1.2354-.2501.4945-.2744.9053-.6772 1.4064-.9428.3566-.1944.7623-.3198 1.1724-.2883.4497.0374.8084.4439.8664.8789.0888.5598-.1196 1.11-.369 1.6001-.5018.9435-1.2824 1.7211-2.1811 2.2897-.5092.3345-1.0763.5744-1.661.7417-.7344.2223-1.5164.2245-2.2736.1526-1.0953-.1225-2.0505-.8239-2.6609-1.7182-.7204-.9897-.9669-2.2193-1.1305-3.4085-.6508-.0726-1.2942-.1966-1.9449-.2678-.5047 2.2222-1.0528 4.4334-1.6125 6.6417-.1277.4893-.2906.9809-.5826 1.399-.2531.3625-.6177.6398-1.0234.8092-.8745.3705-1.8972.4542-2.7908.1035-.3646-.1387-.6954-.3742-.9221-.6926-.3625-.501-.5195-1.1107-.6486-1.705-.3624-1.4878-.6133-3.0013-.7798-4.5229-.168-1.1782-.2429-2.3667-.3485-3.5508-.0617-.7813-.0925-1.5648-.1005-2.3476-.0022-.3588-.0074-.7205-.091-1.0711-.3096.0784-.3837.4108-.4703.6734-.2553.8628-.5143 1.7248-.7608 2.5905-.4409 1.6749-.9001 3.344-1.322 5.0233-.2494.8349-.3961 1.6947-.6192 2.5369-.2648.9633-.4812 1.939-.741 2.9045-.1533.5421-.2164 1.1247-.5179 1.6125-.4167.6816-1.0961 1.1775-1.8407 1.4468-.694.2362-1.4504.3499-2.176.2003-.5304-.1064-.9486-.5055-1.2237-.9538-.4094-.6801-.595-1.4614-.7769-2.2258-.2414-1.011-.3661-2.0447-.4248-3.0813-.1328-1.5774-.1695-3.1613-.1827-4.743.0279-2.0315.0792-4.0629.237-6.0885.0565-1.4218.1614-2.8407.2626-4.2603.036-.5605.1152-1.1181.1233-1.68.0227-.9802.1027-1.9603.066-2.9412-.0301-.5539-.0998-1.1342-.4101-1.6089-.1306-.2215-.3213-.4159-.3881-.6698.0117-.3426.2913-.5942.5312-.8063.6544-.5274 1.454-.8583 2.275-1.0212.457-.0917.9295-.1452 1.3932-.0733.4688.0718.9229.3323 1.165.7483.1871.3037.2494.6639.2634 1.0146.041.8833-.0807 1.7622-.135 2.6426-.2084 2.0542-.5114 4.0981-.6845 6.156-.0756.6969-.102 1.3975-.1798 2.0938-.0674.6052-.0652 1.2163-.1254 1.8223-.0668.6508-.0668 1.3059-.0961 1.9596-.0184.9002-.044 1.8003-.0257 2.7005.0147.4982-.0169 1.0081.1416 1.4886.1335-.0389.3059-.0448.3683-.1937.2531-.4703.3382-1.0058.4761-1.5164.4094-1.5062.8577-3.0021 1.2912-4.5024.2003-.6339.3536-1.2809.5693-1.9097.4439-1.3301.8562-2.6704 1.3045-3.999.325-.9839.6815-1.9567 1.0322-2.9317.3118-.8202.5803-1.6631 1.0058-2.4349.2282-.4101.5238-.7997.9288-1.0477.4952-.2956 1.0909-.3815 1.6588-.3382.6654.0492 1.3396.3639 1.7152.9303.3148.4864.3368 1.0865.336 1.6477-.0117 1.515-.0711 3.03-.0499 4.5449.022.7344.0088 1.4695.0529 2.2032.0418.6683.0366 1.3396.0895 2.008.0645 1.6279.066 3.2632.2971 4.8794.0418.2296.069.4791.2223.6669.0902.0271.2076.0264.2692-.0587.1196-.1541.1541-.3522.2003-.537.0925-.4432.1864-.8863.2707-1.3309.2465-1.3601.5598-2.7071.81-4.0673.3947-1.8282.782-3.6586 1.256-5.4685.5135-2.0065 1.0623-4.0035 1.6675-5.9844.2671-.8451.5767-1.6785.9648-2.476.2846-.5598.6221-1.1188 1.1268-1.5069zm7.6057 11.8469c-.3023.0755-.559.267-.7923.4666-.6192.5436-1.0931 1.2259-1.5429 1.9104-.3301.4966-.595 1.0329-.8437 1.5743-.2391.5349-.4335 1.0968-.4937 1.683.3499-.099.6757-.2648.9765-.4666.6793-.424 1.2978-.9493 1.8018-1.5736.3749-.4696.7358-.9589.9875-1.5084.2113-.4571.3961-.9427.4013-1.4533-.0015-.171-.0096-.3573-.1101-.5026-.0858-.1196-.2443-.1724-.3844-.1298z"/><path d="m126.359 27.2164c.525-.0873 1.103-.0323 1.552.2751.445.3177.762.818.828 1.3646.129.9684.006 1.983-.426 2.8656-.259.5979-.683 1.1408-1.26 1.4585-.368.1995-.813.2069-1.213.1108-.449-.1064-.827-.5143-.852-.9824-.044-.4314.123-.84.259-1.2391.179-.5128.253-1.0704.154-1.6074-.081-.4351-.168-.8855-.068-1.325.112-.479.554-.8312 1.026-.9207z"/><path d="m112.273 32.9191c.453-.5459 1.052-.9978 1.748-1.1746.438-.0939.903-.1071 1.339.0103.58.1695.969.7556.982 1.3477.042.6713-.236 1.3037-.537 1.8862-.498.964-.855 1.9955-1.132 3.0431-.301 1.0213-.48 2.0806-.517 3.1459-.023.504-.033 1.0124.041 1.5135.034.2047.078.416.195.592.122.182.362.2165.565.2062.256-.0103.488-.1438.675-.3125.483-.4344.851-.9773 1.193-1.5253.47-.7556.841-1.5714 1.109-2.4203.309-.9412.638-1.8774.918-2.8282.388-1.1481.699-2.3491 1.392-3.3615.427-.6053 1.04-1.1269 1.782-1.2765.503-.0873 1.073-.0587 1.492.2655.413.3206.581.8606.606 1.3646.065 1.2391-.344 2.4276-.623 3.6176-.251 1.1144-.551 2.2178-.766 3.3403-.199 1.1276-.426 2.2515-.546 3.3916-.164 1.2046-.291 2.4137-.393 3.6249-.146 1.2868-.248 2.5905-.628 3.8348-.284.8957-.555 1.8106-1.055 2.6147-.65 1.0498-1.512 1.9793-2.548 2.6557-1.107.6699-2.352 1.102-3.628 1.3045-.919.1548-1.869.2076-2.789.0278-.778-.1694-1.55-.5194-2.082-1.1276-.54-.6111-.73-1.4885-.538-2.2757.101-.3977.411-.7234.783-.8833.352-.1446.743-.08 1.107-.0235.844.1504 1.708.168 2.559.0976.768-.0617 1.526-.2876 2.184-.6897.569-.3499 1.028-.8613 1.353-1.4423.462-.7689.78-1.6243.916-2.5113.185-1.1936.249-2.4012.421-3.597-.344.4248-.684.8569-1.093 1.2215-.798.7329-1.679 1.4446-2.743 1.7321-.76.2179-1.627.0756-2.25-.4181-.438-.3419-.728-.8283-.966-1.3206-.498-.9882-.699-2.0953-.8-3.1877-.102-1.7035-.025-3.4195.245-5.1046.213-1.2083.47-2.4218.964-3.5509.273-.6448.619-1.2648 1.065-1.8069z"/><path d="m132.01 32.1346c.731-.0726 1.489-.0425 2.184.2143.688.2421 1.294.7475 1.604 1.4144.184.3925.307.8166.331 1.2509.042.7864-.018 1.6052-.368 2.3241-.194.3903-.449.7755-.833 1.0007-.399.2392-.889.2715-1.338.1923-.339-.0609-.682-.226-.872-.5246-.233-.3668-.299-.8033-.395-1.2178-.035-.1204-.059-.2715-.188-.3258-.258-.1108-.548-.0396-.804.036-.658.2259-1.298.5737-1.743 1.1202-.169.2069-.273.4945-.19.7586.08.1842.248.3074.399.4329.551.4284 1.16.7747 1.783 1.0865.559.2846 1.131.5488 1.649.9068.727.4798 1.393 1.096 1.793 1.8803.24.4629.288.9978.243 1.5098-.093.9332-.484 1.8407-1.102 2.545-.95 1.0301-2.222 1.7307-3.564 2.1049-1.023.3301-2.107.4291-3.177.3976-.665-.0206-1.324-.1607-1.945-.394-.561-.2149-1.082-.5715-1.417-1.0762-.264-.4006-.497-.8371-.57-1.3169-.119-.7505.06-1.592.63-2.1254.367-.3206.84-.5319 1.328-.5693.551-.033 1.045.2597 1.488.5532.596.3976 1.332.4967 2.033.4974.424-.0037.885-.0734 1.214-.3646.105-.0822.127-.2399.063-.3544-.115-.2025-.312-.3389-.497-.471-.74-.4996-1.582-.807-2.375-1.2046-.758-.3778-1.491-.8415-2.052-1.4842-.372-.4211-.657-.9434-.707-1.5113-.097-.9148.189-1.8267.635-2.6169 1.104-1.9214 2.906-3.4136 4.965-4.214.574-.2296 1.18-.3815 1.795-.4549z"/></g><path d="m135.676 47.9741c.364-.1085.8-.0388 1.06.2554.251.2589.322.661.218 1.0006-.126.394-.53.6743-.942.6655-.286.0051-.568-.1182-.758-.3302-.258-.2714-.327-.6991-.186-1.0425.115-.2553.338-.4666.608-.5488zm.008.2157c-.471.2055-.578.8929-.231 1.2568.255.2934.755.3323 1.043.0653.348-.2935.348-.8951.009-1.1944-.215-.201-.554-.2472-.821-.1277z" fill="#000"/><path d="m135.636 48.4268c.271-.03.55-.0212.801.0991-.086.2861-.081.5862.001.873-.046.0015-.137.0037-.183.0044-.065-.1218-.128-.2443-.193-.3653-.045-.0015-.137-.0044-.183-.0059-.019.1394-.035.278-.052.4182-.044-.0008-.132-.0022-.176-.0022-.041-.3397-.043-.6816-.015-1.0213zm.23.1497c.007.1071.014.2142.023.3228.118-.0484.239-.0932.362-.1335-.03-.0418-.089-.1247-.118-.1665-.091-.0074-.179-.0155-.267-.0228z" fill="#000"/></svg>