<svg fill="none" height="80" viewBox="0 0 183 80" width="183" xmlns="http://www.w3.org/2000/svg" xmlns:xlink="http://www.w3.org/1999/xlink"><clipPath id="a"><path d="m20 26.5h143v27.3649h-143z"/></clipPath><g clip-path="url(#a)"><g fill="#52ae30"><path d="m92.9634 47.2409c.1738-.7868 1.2991-5.4894 2.4519-10.6769.9881-4.4831 1.6743-7.3193 1.9213-9.3778l.2013-.183 2.8541-.5032.138.183-.7323 2.9002-1.2076 5.0412c1.1389-.7442 2.4639-1.1532 3.8239-1.1803 2.59 0 4.767 1.7567 4.767 5.0595-.031 2.1469-.8 4.2177-2.177 5.8645-2.361 2.6899-5.2612 2.8728-8.6372 3.0101h-1.4455-1.8298zm3.193-1.9121c1.8612.2016 3.7383-.1925 5.3616-1.1253.853-.6109 1.553-1.4096 2.048-2.3345.495-.9248.771-1.9511.806-2.9995 0-2.3879-1.436-3.3028-3.11-3.3028-1.127.0469-2.213.4292-3.1202 1.0979 0 0-1.8299 8.0238-1.9854 8.6642z"/><path d="m121.216 39.0524c-.915 4.0256-1.098 5.0229-1.62 8.1427l-.192.183-2.452.0457-.137-.1829.183-1.043c-1.06.9141-2.425 1.3945-3.824 1.3449-2.672 0-4.84-1.8847-4.84-5.1601.073-2.0525.808-4.0264 2.095-5.6267 2.434-2.8545 5.81-3.01 8.234-3.01h3.605l.137.2013zm-1.94-3.3302h-1.18c-1.448-.0542-2.88.3283-4.108 1.0979-.84.634-1.527 1.4478-2.011 2.3818-.485.934-.754 1.9645-.789 3.0161-.027.4167.031.8346.172 1.2278s.361.7533.646 1.0578c.286.3046.631.5472 1.015.7128.383.1655.797.2504 1.214.2495 1.173-.0118 2.296-.4736 3.138-1.29z"/><path d="m161.81 39.0524c-.915 4.0256-1.098 5.0229-1.619 8.1427l-.183.183-2.461.0457-.128-.1829.183-1.043c-1.06.9088-2.42 1.3886-3.815 1.3449-2.672 0-4.849-1.8847-4.849-5.1601.072-2.0525.807-4.0264 2.095-5.6267 2.433-2.8545 5.818-3.01 8.234-3.01h3.614l.128.2013zm-1.93-3.3302h-1.18c-1.452-.0555-2.886.327-4.118 1.0979-.839.634-1.526 1.4478-2.011 2.3818-.484.934-.754 1.9645-.788 3.0161-.032.4205.024.8429.164 1.2406s.361.762.649 1.0699.637.5526 1.025.7187c.387.1661.805.2499 1.227.2462 1.173-.0119 2.296-.4737 3.138-1.29z"/><path d="m134.18 47.2227-.211.1556-2.671.0731-.101-.1829c.385-1.7658 1.995-7.667 2.013-9.5059 0-1.5645-.97-2.0952-2.196-2.0952-1.286.0532-2.516.5438-3.485 1.3907-.97 4.4007-1.281 5.7914-2.114 10.1646l-.192.1556-2.662.0731-.138-.1829s.796-3.2022 1.519-6.5325c.558-2.6075 1.016-4.7575 1.235-6.5599l.183-.1829c.922-.1097 1.838-.2654 2.745-.4666l.128.1829-.366 1.3358c1.287-1.0142 2.872-1.5769 4.511-1.6011.86 0 3.659.2379 3.659 3.4035.055 1.8938-1.601 8.5178-1.857 10.375z"/><path d="m144.189 39.4094 4.053 7.7218-.155.2104-2.901.0824-.21-.1556c-.686-1.8298-3.66-7.6211-3.66-7.6211-.759 3.3211-.915 4.1079-1.573 7.5662l-.183.1556-2.644.0549-.101-.1556s1.391-5.8096 2.598-11.1893c.568-2.5068 1.446-6.4867 1.83-8.902l.183-.1556 2.855-.4666.155.183c-.521 1.8298-3.01 12.5434-3.01 12.5434 1.885-1.6468 5.005-4.9222 5.425-5.3705l.284-.1555h3.01l.082.2378c-.741.5856-2.122 1.8298-2.616 2.269z"/></g><path d="m66.8429 40.4523c-1.1253 6.4043-5.1143 7.2369-8.4995 7.2369s-6.4043-2.2964-5.5443-7.2735c.677-3.8518 2.9826-7.5114 8.6001-7.2095 3.9066.1921 6.1756 2.8728 5.4437 7.2461zm-6.1116-4.4648c-1.2351 0-2.6258.6221-3.4309 4.4373-.9149 4.2452.9149 4.5197 1.7566 4.5197s2.452-.4301 3.2845-4.4922c.5856-2.8454.119-4.4648-1.6102-4.4648z" fill="#006648"/><path d="m75.37 47.1404-.2104.2104c-.7786.1538-1.5676.2486-2.3605.2836-1.9762 0-4.8764-.2927-3.6596-5.279.8326-3.376 1.4273-5.9011 1.4273-5.9011l-1.8299.0549-.1646-.2105.7593-2.644.183-.1281h1.72l.7777-3.3669.183-.183c1.967-.4483 2.4885-.5764 4.3001-1.107l.1555.1555-1.1528 4.5746 2.6715-.0458.1007.183c-.366 1.0979-.4666 1.3815-.8051 2.6166l-.2105.183-2.4153-.0549s-.4849 2.0311-1.1711 4.8673c-.7411 3.0558-.3477 2.9003.3934 3.193.6513.1346 1.3287.0544 1.9305-.2287l.1555.1281z" fill="#006648"/><path d="m84.8395 34.4963c1.0026-.7917 2.236-1.235 3.5132-1.2626 2.6166 0 4.3732 1.9671 4.3732 5.2882-.0104 2.0933-.7223 4.1228-2.0219 5.7639-2.5892 3.1656-5.8646 3.1381-8.6367 3.1381l-1.4913 6.258-.183.1372c-.6038 0-1.1802 0-1.8298 0-.9149 0-1.6743.0549-2.6441.0732l-.1281-.183s.9149-2.7447 2.0677-7.5388c1.2534-5.032 2.3788-10.9057 2.5252-12.0951l.1829-.183 4.3916-.7319.1647.183zm-2.1226 10.064c1.2602.1334 2.5223-.2347 3.5132-1.0247.6325-.6103 1.1345-1.3425 1.4758-2.1524.3412-.8099.5146-1.6806.5096-2.5594 0-2.1958-1.409-2.4611-1.9305-2.4611-.6914.053-1.3497.3182-1.8847.7594z" fill="#006648"/><path clip-rule="evenodd" d="m19.9996 39.4368c-.0012-1.6977.332-3.379.9806-4.9479.6485-1.5689 1.5998-2.9947 2.7993-4.196 1.1996-1.2013 2.6241-2.1546 4.1921-2.8053 1.568-.6508 3.2488-.9864 4.9465-.9876v4.6752c-1.6286 0-3.2206.4829-4.5747 1.3877s-2.4095 2.1908-3.0327 3.6954-.7863 3.1602-.4686 4.7574c.3178 1.5973 1.102 3.0645 2.2536 4.2161 1.1515 1.1515 2.6187 1.9358 4.216 2.2535s3.2529.1546 4.7575-.4686 2.7906-1.6786 3.6953-3.0327c.9048-1.3541 1.3878-2.9461 1.3878-4.5747h4.6751c.1067 1.7604-.1477 3.5241-.7475 5.1826-.5999 1.6585-1.5325 3.1768-2.7406 4.4617-1.208 1.2849-2.6661 2.3092-4.2845 3.0099-1.6185.7008-3.3631 1.0633-5.1267 1.0652-1.7637.0018-3.5091-.3569-5.129-1.0543-1.6199-.6973-3.0801-1.7185-4.2909-3.0008s-2.1467-2.7987-2.75-4.4559c-.6034-1.6572-.8615-3.4203-.7586-5.1809z" fill="#006648" fill-rule="evenodd"/><path d="m27.2275 39.4369c0-1.1346.3365-2.2436.9668-3.187s1.5263-1.6786 2.5745-2.1128 2.2016-.5478 3.3143-.3264c1.1128.2213 2.1349.7677 2.9372 1.5699.8023.8023 1.3486 1.8244 1.57 2.9372.2213 1.1127.1077 2.2662-.3265 3.3144s-1.1694 1.9441-2.1128 2.5744c-.9433.6303-2.0524.9668-3.187.9668-1.5214 0-2.9805-.6044-4.0563-1.6802s-1.6802-2.5349-1.6802-4.0563z" fill="#52ae30"/><path d="m36.9439 32.1633c0-.6518.1934-1.2889.5557-1.8308.3623-.5418.8772-.964 1.4796-1.213s1.2651-.3137 1.9043-.1858c.6391.1278 1.226.4424 1.6862.9039.4603.4616.7733 1.0493.8993 1.6888.1261.6395.0595 1.3021-.1912 1.9037-.2506.6017-.6742 1.1155-1.2171 1.4763-.5428.3608-1.1805.5524-1.8323.5506-.4321 0-.86-.0852-1.2591-.2509-.3991-.1656-.7616-.4084-1.0667-.7143-.3051-.306-.5468-.6692-.7114-1.0687-.1645-.3996-.2485-.8277-.2473-1.2598z" fill="#006648"/></g></svg>